<svg xmlns="http://www.w3.org/2000/svg" width="155.774" height="26" viewBox="0 0 155.774 26"><defs><style>.a{fill:#0071bc;}.b{fill:#fff;}.c{fill:#f15a24;}.d{fill:#ed1c24;}</style></defs><g transform="translate(0.024)"><g transform="translate(-0.024)"><path class="a" d="M1513.611,905.637l.1-.071a.649.649,0,0,1,.261-.109q.168,0,.364.3a.63.63,0,0,1,.12.3.262.262,0,0,1-.073.19.853.853,0,0,1-.17.136l-.187.114a1.988,1.988,0,0,1-.366.141,1.793,1.793,0,0,1-.535.087,2.09,2.09,0,0,1-.522-.068,2.2,2.2,0,0,1-.543-.228,2.239,2.239,0,0,1-.5-.391,1.8,1.8,0,0,1-.367-.592,2.1,2.1,0,0,1-.144-.785,2.011,2.011,0,0,1,.141-.769,1.763,1.763,0,0,1,.361-.571,2.068,2.068,0,0,1,.5-.378,2.2,2.2,0,0,1,1.07-.294,2.075,2.075,0,0,1,.918.239l.13.076q.1.06.152.1a.329.329,0,0,1,.141.258.52.52,0,0,1-.114.3q-.212.294-.38.294a.576.576,0,0,1-.277-.12.939.939,0,0,0-.609-.185,1.186,1.186,0,0,0-.7.244.916.916,0,0,0-.272.337,1.166,1.166,0,0,0,0,.984.94.94,0,0,0,.277.342,1.164,1.164,0,0,0,.69.239,1.127,1.127,0,0,0,.318-.043A.826.826,0,0,0,1513.611,905.637Z" transform="translate(-1476.382 -882.231)"/><path class="a" d="M1668.991,948.074a1.49,1.49,0,0,1,1.044-.424,1.472,1.472,0,0,1,1.037.421,1.5,1.5,0,0,1,.217,1.874,1.465,1.465,0,0,1-.568.516,1.542,1.542,0,0,1-.693.166,1.481,1.481,0,0,1-.7-.177,1.544,1.544,0,0,1-.568-.521,1.371,1.371,0,0,1-.231-.78A1.4,1.4,0,0,1,1668.991,948.074Zm.68,1.464a.578.578,0,0,0,.353.133.593.593,0,0,0,.359-.136.545.545,0,0,0,.011-.8.582.582,0,0,0-.364-.13.568.568,0,0,0-.364.136.483.483,0,0,0-.169.4.468.468,0,0,0,.173.4Z" transform="translate(-1630.256 -926.129)"/><path class="a" d="M1812.761,897.855a.353.353,0,0,1,.267.092.577.577,0,0,1,.087.38.569.569,0,0,1-.092.383.354.354,0,0,1-.267.095.967.967,0,0,1-.772-.263,1.36,1.36,0,0,1-.222-.877v-2.592a1.579,1.579,0,0,1,.008-.188.511.511,0,0,1,.046-.144q.076-.141.424-.141.331,0,.413.152a.383.383,0,0,1,.052.139,1.575,1.575,0,0,1,.008.187v2.608Q1812.712,897.855,1812.761,897.855Zm1.462-.033a.455.455,0,0,0,.223.033.476.476,0,0,1,.3.092.468.468,0,0,1,.119.38.458.458,0,0,1-.128.383.585.585,0,0,1-.356.095,1.013,1.013,0,0,1-1.152-1.141l0-2.591a1.606,1.606,0,0,1,.008-.188.434.434,0,0,1,.052-.144q.082-.141.424-.141t.413.152a.738.738,0,0,1,.06.326v2.608A.166.166,0,0,0,1814.223,897.822Z" transform="translate(-1770.199 -874.367)"/><path class="a" d="M1956.05,950.634q.033-.3.429-.3a1.133,1.133,0,0,1,.316.033.228.228,0,0,1,.144.114.473.473,0,0,1,.048.144,1.6,1.6,0,0,1,.008.187v1.9a1.6,1.6,0,0,1-.008.188.5.5,0,0,1-.046.144q-.076.142-.372.141a.746.746,0,0,1-.4-.073.291.291,0,0,1-.117-.215.76.76,0,0,1-.671.288,1.185,1.185,0,0,1-.872-.429,1.432,1.432,0,0,1,0-1.992,1.209,1.209,0,0,1,.888-.427.847.847,0,0,1,.337.065.589.589,0,0,1,.31.234Zm-.989,1.13a.45.45,0,0,0,.141.323.461.461,0,0,0,.342.144.432.432,0,0,0,.334-.146.471.471,0,0,0,.133-.323.5.5,0,0,0-.128-.329.426.426,0,0,0-.342-.152.441.441,0,0,0-.348.152.493.493,0,0,0-.133.33Z" transform="translate(-1909.279 -928.744)"/><path class="a" d="M2097.991,896.661a1.206,1.206,0,0,1,.888.429,1.432,1.432,0,0,1,0,1.993,1.177,1.177,0,0,1-.864.427.771.771,0,0,1-.658-.261q-.044.267-.467.267-.342,0-.418-.146a.5.5,0,0,1-.046-.144,1.5,1.5,0,0,1-.008-.187v-3.247a1.551,1.551,0,0,1,.008-.187.436.436,0,0,1,.046-.139q.076-.146.424-.146t.413.146a.432.432,0,0,1,.052.144,1.5,1.5,0,0,1,.008.187v1.13A.756.756,0,0,1,2097.991,896.661Zm-.476,1.755a.433.433,0,0,0,.334.146.49.49,0,0,0,.484-.472.489.489,0,0,0-.13-.329.44.44,0,0,0-.348-.149.427.427,0,0,0-.345.152.5.5,0,0,0-.128.329A.472.472,0,0,0,2097.516,898.416Z" transform="translate(-2048.324 -875.07)"/><path class="a" d="M2231.6,948.074a1.49,1.49,0,0,1,1.044-.424,1.47,1.47,0,0,1,1.036.421,1.5,1.5,0,0,1,.217,1.874,1.469,1.469,0,0,1-.568.516,1.54,1.54,0,0,1-.692.166,1.482,1.482,0,0,1-.7-.177,1.539,1.539,0,0,1-.568-.521,1.368,1.368,0,0,1-.231-.78A1.4,1.4,0,0,1,2231.6,948.074Zm.68,1.464a.577.577,0,0,0,.353.133.592.592,0,0,0,.359-.136.546.546,0,0,0,.011-.8.583.583,0,0,0-.364-.13.569.569,0,0,0-.364.136.483.483,0,0,0-.168.4.47.47,0,0,0,.172.4Z" transform="translate(-2179.959 -926.129)"/><path class="a" d="M2376.346,949.383a.37.37,0,0,1,.171.111.383.383,0,0,1,.068.253.857.857,0,0,1-.1.38.325.325,0,0,1-.3.207.427.427,0,0,1-.188-.043.542.542,0,0,0-.236-.044.429.429,0,0,0-.274.1.31.31,0,0,0-.128.25v1.141a1.5,1.5,0,0,1-.008.187.433.433,0,0,1-.052.144q-.081.141-.424.141a.6.6,0,0,1-.375-.092.323.323,0,0,1-.1-.234v-2.064a1.657,1.657,0,0,1,.008-.187.449.449,0,0,1,.046-.139q.076-.146.423-.146.327,0,.408.125a.317.317,0,0,1,.06.179.881.881,0,0,1,.079-.092.989.989,0,0,1,.22-.146.65.65,0,0,1,.3-.092,1.439,1.439,0,0,1,.215.014A1.372,1.372,0,0,1,2376.346,949.383Z" transform="translate(-2319.914 -927.765)"/><path class="a" d="M2474.11,950.634q.033-.3.429-.3a1.131,1.131,0,0,1,.315.033.228.228,0,0,1,.144.114.476.476,0,0,1,.048.144,1.542,1.542,0,0,1,.008.187v1.9a1.55,1.55,0,0,1-.008.187.508.508,0,0,1-.046.144q-.076.142-.372.141a.742.742,0,0,1-.4-.073.293.293,0,0,1-.117-.215.759.759,0,0,1-.671.288,1.186,1.186,0,0,1-.872-.429,1.432,1.432,0,0,1,0-1.992,1.208,1.208,0,0,1,.888-.427.845.845,0,0,1,.337.065.76.76,0,0,1,.212.121A.779.779,0,0,1,2474.11,950.634Zm-.989,1.13a.45.45,0,0,0,.142.323.46.46,0,0,0,.342.144.432.432,0,0,0,.334-.146.471.471,0,0,0,.133-.323.5.5,0,0,0-.128-.329.426.426,0,0,0-.342-.152.441.441,0,0,0-.348.152A.494.494,0,0,0,2473.121,951.764Z" transform="translate(-2415.453 -928.744)"/><path class="a" d="M2610.669,912.019l-.353-.022v.75a.379.379,0,0,0,.046.212.2.2,0,0,0,.174.065,1.747,1.747,0,0,1,.194.008.378.378,0,0,1,.144.052q.125.071.125.364,0,.342-.152.418a.49.49,0,0,1-.144.046,1.457,1.457,0,0,1-.182.008,1.272,1.272,0,0,1-.858-.255,1.1,1.1,0,0,1-.293-.864V912a1.465,1.465,0,0,1-.223.016.249.249,0,0,1-.2-.093.485.485,0,0,1-.079-.316,1.36,1.36,0,0,1,.027-.323.288.288,0,0,1,.076-.144.334.334,0,0,1,.219-.071l.179.022v-.558a1.46,1.46,0,0,1,.008-.185.345.345,0,0,1,.052-.13c.047-.091.187-.136.418-.136s.393.067.44.2a.987.987,0,0,1,.027.277v.532q.239-.021.361-.022a1.556,1.556,0,0,1,.185.008.437.437,0,0,1,.144.052q.141.071.141.418t-.146.418a.5.5,0,0,1-.144.046A1.611,1.611,0,0,1,2610.669,912.019Z" transform="translate(-2549.004 -889.471)"/><path class="a" d="M2721.445,896.126a.23.23,0,0,1-.144.111,1.173,1.173,0,0,1-.548,0,.228.228,0,0,1-.144-.114.445.445,0,0,1-.049-.144,2.09,2.09,0,0,1,0-.375.448.448,0,0,1,.046-.139c.051-.1.192-.146.424-.146s.366.049.413.146a.434.434,0,0,1,.051.144,2.09,2.09,0,0,1,0,.375A.428.428,0,0,1,2721.445,896.126Zm-.894,1.007a1.5,1.5,0,0,1,.008-.187.5.5,0,0,1,.046-.144q.076-.141.424-.141a.573.573,0,0,1,.37.093.3.3,0,0,1,.1.234c0,.036.005.089.005.158v1.9a1.412,1.412,0,0,1-.008.187.434.434,0,0,1-.051.144q-.07.141-.418.141c-.228,0-.368-.048-.418-.146a.514.514,0,0,1-.046-.141,1.646,1.646,0,0,1-.008-.19Z" transform="translate(-2658.093 -875.07)"/><path class="a" d="M2780.681,948.144q.283.168.283.359a.67.67,0,0,1-.109.3l-1.125,1.929a.5.5,0,0,1-.174.166.45.45,0,0,1-.236.073.462.462,0,0,1-.223-.057.442.442,0,0,1-.149-.117l-.048-.06-1.13-1.934a.611.611,0,0,1-.109-.294q0-.2.282-.364a.725.725,0,0,1,.326-.12.242.242,0,0,1,.188.073,1.035,1.035,0,0,1,.144.22l.711,1.369.712-1.367c.04-.069.07-.119.09-.15a.359.359,0,0,1,.095-.092.3.3,0,0,1,.174-.046A.651.651,0,0,1,2780.681,948.144Z" transform="translate(-2713.945 -926.494)"/><path class="a" d="M2924.5,949.019a.661.661,0,0,1-.166.495.517.517,0,0,1-.367.16h-1.287a.3.3,0,0,0,.179.255.714.714,0,0,0,.359.1,1.49,1.49,0,0,0,.494-.065l.06-.022a.55.55,0,0,1,.219-.06q.174,0,.3.245a.594.594,0,0,1,.071.25q0,.484-1.157.484a1.746,1.746,0,0,1-.715-.139,1.211,1.211,0,0,1-.485-.367,1.562,1.562,0,0,1-.343-.984,1.421,1.421,0,0,1,.443-1.095,1.566,1.566,0,0,1,1.106-.41,1.235,1.235,0,0,1,1.108.532A1.1,1.1,0,0,1,2924.5,949.019Zm-1.146.16c.138,0,.207-.058.207-.174a.244.244,0,0,0-.1-.2.423.423,0,0,0-.271-.076.551.551,0,0,0-.351.144.405.405,0,0,0-.174.307Z" transform="translate(-2854.629 -926.344)"/><path class="a" d="M3123.832,905.073a1.438,1.438,0,0,1,.141.641,1.416,1.416,0,0,1-.141.638,1.255,1.255,0,0,1-.364.454,1.513,1.513,0,0,1-.935.348h-.68v.614a1.5,1.5,0,0,1-.008.187.426.426,0,0,1-.052.144q-.077.146-.424.146-.381,0-.446-.2a.9.9,0,0,1-.032-.283v-3.015a1.5,1.5,0,0,1,.008-.187.432.432,0,0,1,.052-.144q.076-.146.424-.146h1.163a1.508,1.508,0,0,1,.929.348A1.252,1.252,0,0,1,3123.832,905.073Zm-.971,1a.422.422,0,0,0,.157-.359.428.428,0,0,0-.157-.361.529.529,0,0,0-.326-.121h-.68v.962h.685A.537.537,0,0,0,3122.861,906.073Z" transform="translate(-3049.297 -883.803)"/><path class="a" d="M3269.888,949.383a.366.366,0,0,1,.17.111.381.381,0,0,1,.068.253.858.858,0,0,1-.1.38.324.324,0,0,1-.3.207.427.427,0,0,1-.188-.044.543.543,0,0,0-.236-.043.429.429,0,0,0-.274.1.312.312,0,0,0-.128.25v1.141a1.656,1.656,0,0,1-.008.187.44.44,0,0,1-.052.144q-.082.141-.424.141a.6.6,0,0,1-.375-.092.324.324,0,0,1-.1-.234v-2.064a1.6,1.6,0,0,1,.008-.187.451.451,0,0,1,.046-.139q.076-.146.424-.146.326,0,.407.125a.315.315,0,0,1,.06.179.858.858,0,0,1,.079-.092,1,1,0,0,1,.22-.146.652.652,0,0,1,.3-.093,1.433,1.433,0,0,1,.215.014A1.331,1.331,0,0,1,3269.888,949.383Z" transform="translate(-3192.95 -927.764)"/><path class="a" d="M3366.221,948.074a1.489,1.489,0,0,1,1.044-.424,1.473,1.473,0,0,1,1.037.421,1.5,1.5,0,0,1,.217,1.874,1.467,1.467,0,0,1-.568.516,1.54,1.54,0,0,1-.693.166,1.483,1.483,0,0,1-.7-.177,1.544,1.544,0,0,1-.568-.521,1.37,1.37,0,0,1-.231-.78A1.4,1.4,0,0,1,3366.221,948.074Zm.68,1.464a.578.578,0,0,0,.353.133.592.592,0,0,0,.359-.136.546.546,0,0,0,.011-.8.584.584,0,0,0-.364-.13.569.569,0,0,0-.364.136.482.482,0,0,0-.168.4.469.469,0,0,0,.173.4Z" transform="translate(-3288.55 -926.129)"/><path class="a" d="M3510.562,896.661a1.205,1.205,0,0,1,.888.429,1.432,1.432,0,0,1,0,1.993,1.177,1.177,0,0,1-.864.427.77.77,0,0,1-.657-.261q-.044.267-.468.267-.342,0-.418-.146a.506.506,0,0,1-.046-.144,1.6,1.6,0,0,1-.008-.187v-3.247a1.6,1.6,0,0,1,.008-.187.448.448,0,0,1,.046-.139q.076-.146.424-.146t.413.146a.44.44,0,0,1,.052.144,1.655,1.655,0,0,1,.008.187v1.13A.755.755,0,0,1,3510.562,896.661Zm-.476,1.755a.432.432,0,0,0,.334.146.491.491,0,0,0,.484-.472.491.491,0,0,0-.131-.329.438.438,0,0,0-.348-.149.427.427,0,0,0-.345.152.5.5,0,0,0-.128.329A.472.472,0,0,0,3510.086,898.416Z" transform="translate(-3428.487 -875.07)"/><path class="a" d="M3647.07,895.347a1.5,1.5,0,0,1,.008-.187.514.514,0,0,1,.046-.144q.075-.146.424-.146.331,0,.413.146a.453.453,0,0,1,.052.146,1.652,1.652,0,0,1,.008.19v2.516a.565.565,0,0,0,.033.247c.021.035.07.052.144.052a.85.85,0,0,1,.149.008.271.271,0,0,1,.092.046q.109.071.109.386,0,.342-.109.418a1.187,1.187,0,0,1-.674.032.676.676,0,0,1-.543-.277,1.784,1.784,0,0,1-.152-.848Z" transform="translate(-3563.357 -874.631)"/><path class="a" d="M3723.169,949.019a.661.661,0,0,1-.166.495.516.516,0,0,1-.367.16h-1.287a.3.3,0,0,0,.179.255.715.715,0,0,0,.359.1,1.491,1.491,0,0,0,.494-.065l.06-.022a.546.546,0,0,1,.217-.06q.174,0,.3.245a.6.6,0,0,1,.07.25q0,.484-1.157.484a1.742,1.742,0,0,1-.714-.139,1.214,1.214,0,0,1-.486-.367,1.566,1.566,0,0,1-.342-.984,1.421,1.421,0,0,1,.443-1.095,1.567,1.567,0,0,1,1.106-.41,1.234,1.234,0,0,1,1.108.532A1.1,1.1,0,0,1,3723.169,949.019Zm-1.146.16q.207,0,.207-.174a.245.245,0,0,0-.095-.2.424.424,0,0,0-.272-.076.551.551,0,0,0-.351.144.4.4,0,0,0-.174.307Z" transform="translate(-3634.976 -926.344)"/><path class="a" d="M3858.375,950.5a.731.731,0,0,1,.614-.386.89.89,0,0,1,.826.473,1.765,1.765,0,0,1,.144-.171,1.174,1.174,0,0,1,.269-.2.754.754,0,0,1,.38-.106.932.932,0,0,1,.729.334,1.661,1.661,0,0,1,.293,1.106v.951a1.714,1.714,0,0,1-.008.187.452.452,0,0,1-.052.144q-.071.146-.418.146t-.418-.152a.5.5,0,0,1-.046-.144,1.656,1.656,0,0,1-.008-.187v-.951q0-.473-.337-.473a.267.267,0,0,0-.258.125.751.751,0,0,0-.068.353v.951a1.545,1.545,0,0,1-.008.19.431.431,0,0,1-.052.141q-.076.146-.424.146t-.418-.152a.484.484,0,0,1-.046-.144,1.5,1.5,0,0,1-.008-.187v-.951q0-.473-.337-.473t-.326.473v.962a1.6,1.6,0,0,1-.008.187.436.436,0,0,1-.052.144q-.081.141-.424.141c-.228,0-.368-.049-.418-.146a.507.507,0,0,1-.046-.141,1.545,1.545,0,0,1-.008-.19v-1.912a1.552,1.552,0,0,1,.008-.187.388.388,0,0,1,.052-.139q.082-.146.386-.146a.567.567,0,0,1,.4.1A.393.393,0,0,1,3858.375,950.5Z" transform="translate(-3768.985 -928.529)"/><path class="a" d="M4112.491,905.062a.516.516,0,0,1-.141-.312q0-.139.233-.367a.413.413,0,0,1,.289-.13c.1,0,.243.091.423.272a.823.823,0,0,0,.217.177.518.518,0,0,0,.261.084q.505,0,.505-.413a.245.245,0,0,0-.138-.209,1.018,1.018,0,0,0-.345-.121,3.148,3.148,0,0,1-.891-.321.9.9,0,0,1-.345-.361,1.2,1.2,0,0,1-.139-.6,1.144,1.144,0,0,1,.356-.834,1.309,1.309,0,0,1,.97-.356,1.988,1.988,0,0,1,.6.084,1.179,1.179,0,0,1,.373.17l.136.1a.426.426,0,0,1,.168.267.6.6,0,0,1-.13.3c-.124.181-.25.272-.381.272a.561.561,0,0,1-.283-.109.711.711,0,0,1-.062-.054.87.87,0,0,0-.083-.071.551.551,0,0,0-.292-.07.488.488,0,0,0-.293.084.271.271,0,0,0-.117.234.282.282,0,0,0,.138.243.857.857,0,0,0,.345.125,4.162,4.162,0,0,1,.451.1,2.836,2.836,0,0,1,.451.166.793.793,0,0,1,.345.34,1.184,1.184,0,0,1,.138.595,1.324,1.324,0,0,1-.141.622,1.079,1.079,0,0,1-.369.416,1.688,1.688,0,0,1-.94.288,1.818,1.818,0,0,1-.484-.063,1.293,1.293,0,0,1-.369-.155,1.323,1.323,0,0,1-.4-.337Z" transform="translate(-4018.005 -881.173)"/><path class="a" d="M4248.862,948.074a1.489,1.489,0,0,1,1.043-.424,1.472,1.472,0,0,1,1.037.421,1.5,1.5,0,0,1,.218,1.874,1.464,1.464,0,0,1-.568.516,1.54,1.54,0,0,1-.693.166,1.48,1.48,0,0,1-.7-.177,1.548,1.548,0,0,1-.568-.521,1.375,1.375,0,0,1-.23-.78A1.4,1.4,0,0,1,4248.862,948.074Zm.679,1.464a.579.579,0,0,0,.354.133.591.591,0,0,0,.358-.136.546.546,0,0,0,.012-.8.584.584,0,0,0-.365-.13.571.571,0,0,0-.364.136.483.483,0,0,0-.168.4.47.47,0,0,0,.172.4Z" transform="translate(-4150.942 -926.129)"/><path class="a" d="M4391.631,895.347a1.5,1.5,0,0,1,.008-.187.5.5,0,0,1,.046-.144c.05-.1.192-.146.423-.146s.359.049.413.146a.453.453,0,0,1,.052.146,1.769,1.769,0,0,1,.008.19v2.516a.576.576,0,0,0,.032.247c.022.035.07.052.145.052a.85.85,0,0,1,.149.008.266.266,0,0,1,.092.046c.073.047.109.176.109.386,0,.228-.036.368-.109.418a1.184,1.184,0,0,1-.673.032.678.678,0,0,1-.543-.277,1.779,1.779,0,0,1-.152-.848Z" transform="translate(-4290.827 -874.631)"/><path class="a" d="M4458.909,948.145q.282.168.282.359a.671.671,0,0,1-.108.3l-1.125,1.929a.5.5,0,0,1-.173.166.451.451,0,0,1-.236.073.464.464,0,0,1-.223-.057.444.444,0,0,1-.149-.117l-.048-.06L4456,948.8a.615.615,0,0,1-.108-.294q0-.2.282-.364a.725.725,0,0,1,.326-.12.244.244,0,0,1,.188.073,1.04,1.04,0,0,1,.144.22l.712,1.369.712-1.369c.04-.069.07-.119.089-.149a.363.363,0,0,1,.1-.092.294.294,0,0,1,.174-.046A.668.668,0,0,1,4458.909,948.145Z" transform="translate(-4353.677 -926.494)"/><path class="a" d="M4610.686,896.126a.233.233,0,0,1-.144.111,1.175,1.175,0,0,1-.549,0,.228.228,0,0,1-.144-.114.457.457,0,0,1-.048-.144,2.09,2.09,0,0,1,0-.375.413.413,0,0,1,.046-.139c.051-.1.192-.146.424-.146s.366.049.413.146a.424.424,0,0,1,.052.144,2.09,2.09,0,0,1,0,.375A.451.451,0,0,1,4610.686,896.126Zm-.894,1.007a1.5,1.5,0,0,1,.009-.187.482.482,0,0,1,.046-.144c.051-.094.191-.141.424-.141a.572.572,0,0,1,.369.093.3.3,0,0,1,.1.234c0,.036,0,.089,0,.158v1.9a1.5,1.5,0,0,1-.009.187.422.422,0,0,1-.051.144c-.047.094-.187.141-.419.141s-.367-.048-.418-.146a.5.5,0,0,1-.046-.141,1.647,1.647,0,0,1-.008-.19Z" transform="translate(-4503.96 -875.07)"/><path class="a" d="M4674.083,950.329a1.147,1.147,0,0,1,.9.416,1.489,1.489,0,0,1,.361,1.013v.956a1.5,1.5,0,0,1-.008.187.46.46,0,0,1-.046.138c-.052.1-.192.146-.424.146q-.386,0-.445-.2a.878.878,0,0,1-.033-.277v-.954a.437.437,0,0,0-.47-.473.476.476,0,0,0-.348.131.46.46,0,0,0-.133.342v.962a1.5,1.5,0,0,1-.008.187.381.381,0,0,1-.052.138c-.047.1-.187.146-.418.146s-.368-.049-.419-.146a.514.514,0,0,1-.046-.144,1.6,1.6,0,0,1-.008-.187v-1.924a1.513,1.513,0,0,1,.008-.182.4.4,0,0,1,.051-.138q.076-.136.418-.136c.221,0,.357.042.408.125a.437.437,0,0,1,.054.223.563.563,0,0,1,.1-.109.932.932,0,0,1,.146-.114A.711.711,0,0,1,4674.083,950.329Z" transform="translate(-4565.293 -928.743)"/><path class="a" d="M4812.247,952.4a.774.774,0,0,1-.657.272,1.16,1.16,0,0,1-.845-.416,1.39,1.39,0,0,1,0-1.943,1.182,1.182,0,0,1,.87-.418.815.815,0,0,1,.336.068.583.583,0,0,1,.3.231.331.331,0,0,1,.112-.231.478.478,0,0,1,.307-.079,1.062,1.062,0,0,1,.31.033.229.229,0,0,1,.139.111.449.449,0,0,1,.048.139,1.46,1.46,0,0,1,.008.185V952.6a1.279,1.279,0,0,1-.435,1.008,1.442,1.442,0,0,1-.978.383,1.642,1.642,0,0,1-.788-.2q-.375-.2-.375-.364a.517.517,0,0,1,.163-.375,1.39,1.39,0,0,1,.16-.158.215.215,0,0,1,.133-.043.255.255,0,0,1,.157.065.909.909,0,0,0,.565.2.412.412,0,0,0,.336-.163.607.607,0,0,0,.131-.391Zm-.967-1.111a.443.443,0,0,0,.139.318.453.453,0,0,0,.337.141.424.424,0,0,0,.329-.144.457.457,0,0,0,.13-.316.487.487,0,0,0-.125-.32.415.415,0,0,0-.336-.149.437.437,0,0,0-.342.146A.476.476,0,0,0,4811.28,951.284Z" transform="translate(-4699.989 -928.305)"/><path class="a" d="M5011.671,905.637l.1-.071a.647.647,0,0,1,.261-.109q.168,0,.364.3a.627.627,0,0,1,.12.3.262.262,0,0,1-.073.19.887.887,0,0,1-.171.136l-.187.114a1.977,1.977,0,0,1-.367.141,1.79,1.79,0,0,1-.534.087,2.088,2.088,0,0,1-.521-.068,2.208,2.208,0,0,1-.543-.228,2.262,2.262,0,0,1-.5-.391,1.781,1.781,0,0,1-.366-.592,2.086,2.086,0,0,1-.144-.785,2,2,0,0,1,.141-.769,1.767,1.767,0,0,1,.361-.571,2.085,2.085,0,0,1,.5-.378,2.2,2.2,0,0,1,1.07-.294,2.07,2.07,0,0,1,.918.239l.13.076.152.1a.329.329,0,0,1,.141.258.518.518,0,0,1-.114.3q-.212.294-.38.294a.58.58,0,0,1-.277-.12.937.937,0,0,0-.608-.185,1.187,1.187,0,0,0-.7.244.919.919,0,0,0-.272.337,1.17,1.17,0,0,0,0,.984.94.94,0,0,0,.277.342,1.165,1.165,0,0,0,.69.239,1.131,1.131,0,0,0,.318-.043A.818.818,0,0,0,5011.671,905.637Z" transform="translate(-4894.207 -882.231)"/><path class="a" d="M5171.556,896.666a1.152,1.152,0,0,1,.9.413,1.48,1.48,0,0,1,.361,1.01v.956a1.5,1.5,0,0,1-.008.187.435.435,0,0,1-.052.144c-.047.094-.187.141-.418.141s-.358-.047-.413-.141a.454.454,0,0,1-.052-.146,1.869,1.869,0,0,1-.008-.2v-.951a.471.471,0,0,0-.125-.348.431.431,0,0,0-.317-.125.533.533,0,0,0-.341.117.423.423,0,0,0-.168.263v1.054a1.714,1.714,0,0,1-.008.187.442.442,0,0,1-.052.144q-.071.141-.419.141c-.228,0-.367-.049-.418-.146a.5.5,0,0,1-.046-.141,1.375,1.375,0,0,1-.008-.19v-3.251a1.336,1.336,0,0,1,.008-.187.448.448,0,0,1,.046-.139q.077-.146.424-.146c.229,0,.366.049.413.146a.422.422,0,0,1,.052.144,1.6,1.6,0,0,1,.008.187V897A.805.805,0,0,1,5171.556,896.666Z" transform="translate(-5051.358 -875.07)"/><path class="a" d="M5309.56,950.634q.032-.3.429-.3a1.129,1.129,0,0,1,.315.033.226.226,0,0,1,.144.114.457.457,0,0,1,.049.144,1.5,1.5,0,0,1,.008.187v1.9a1.5,1.5,0,0,1-.008.188.5.5,0,0,1-.046.144q-.076.142-.372.141a.745.745,0,0,1-.4-.073.293.293,0,0,1-.117-.215.76.76,0,0,1-.671.288,1.185,1.185,0,0,1-.872-.429,1.431,1.431,0,0,1,0-1.992,1.207,1.207,0,0,1,.888-.427.846.846,0,0,1,.337.065.76.76,0,0,1,.212.121A.829.829,0,0,1,5309.56,950.634Zm-.989,1.13a.452.452,0,0,0,.141.323.463.463,0,0,0,.343.144.433.433,0,0,0,.334-.146.474.474,0,0,0,.133-.323.5.5,0,0,0-.128-.329.426.426,0,0,0-.343-.152.441.441,0,0,0-.347.152A.493.493,0,0,0,5308.571,951.764Z" transform="translate(-5185.853 -928.744)"/><path class="a" d="M5450.942,897.845a.352.352,0,0,1,.267.092.581.581,0,0,1,.087.38.572.572,0,0,1-.092.383.355.355,0,0,1-.268.095.966.966,0,0,1-.771-.263,1.36,1.36,0,0,1-.222-.877v-2.592a1.506,1.506,0,0,1,.008-.188.531.531,0,0,1,.046-.144q.076-.141.424-.141.331,0,.413.152a.392.392,0,0,1,.052.139,1.5,1.5,0,0,1,.008.187v2.608C5450.893,897.789,5450.91,897.845,5450.942,897.845Zm1.462-.033a.452.452,0,0,0,.222.033.473.473,0,0,1,.3.092.466.466,0,0,1,.12.38.457.457,0,0,1-.128.383.583.583,0,0,1-.355.095,1.013,1.013,0,0,1-1.152-1.141l-.005-2.592a1.506,1.506,0,0,1,.008-.188.422.422,0,0,1,.051-.144c.054-.094.2-.141.424-.141s.359.051.413.152a.735.735,0,0,1,.06.326v2.608A.165.165,0,0,0,5452.4,897.813Z" transform="translate(-5326.534 -874.358)"/><path class="a" d="M5595.229,949.019a.661.661,0,0,1-.166.495.516.516,0,0,1-.367.16h-1.287a.3.3,0,0,0,.18.255.714.714,0,0,0,.358.1,1.487,1.487,0,0,0,.494-.065l.06-.022a.549.549,0,0,1,.219-.06c.115,0,.215.082.3.245a.591.591,0,0,1,.071.25q0,.484-1.158.484a1.742,1.742,0,0,1-.714-.139,1.206,1.206,0,0,1-.485-.367,1.562,1.562,0,0,1-.343-.984,1.42,1.42,0,0,1,.443-1.095,1.567,1.567,0,0,1,1.105-.41,1.235,1.235,0,0,1,1.108.532A1.1,1.1,0,0,1,5595.229,949.019Zm-1.146.16c.138,0,.207-.058.207-.174a.246.246,0,0,0-.1-.2.423.423,0,0,0-.271-.076.55.55,0,0,0-.351.144.4.4,0,0,0-.174.307Z" transform="translate(-5465.523 -926.344)"/><path class="a" d="M5731.006,950.329a1.15,1.15,0,0,1,.9.416,1.487,1.487,0,0,1,.361,1.013v.956a1.5,1.5,0,0,1-.008.187.449.449,0,0,1-.046.138q-.076.146-.424.146-.386,0-.446-.2a.9.9,0,0,1-.032-.277v-.954a.437.437,0,0,0-.47-.473.476.476,0,0,0-.348.131.457.457,0,0,0-.133.342v.962a1.716,1.716,0,0,1-.008.187.39.39,0,0,1-.051.138q-.071.146-.418.146c-.229,0-.368-.049-.418-.146a.485.485,0,0,1-.046-.144,1.5,1.5,0,0,1-.008-.187v-1.924a1.621,1.621,0,0,1,.008-.182.39.39,0,0,1,.051-.138q.076-.136.418-.136t.408.125a.432.432,0,0,1,.054.223.58.58,0,0,1,.1-.109.951.951,0,0,1,.146-.114A.712.712,0,0,1,5731.006,950.329Z" transform="translate(-5599.219 -928.743)"/><path class="a" d="M5869.215,952.4a.773.773,0,0,1-.657.272,1.158,1.158,0,0,1-.845-.416,1.391,1.391,0,0,1,0-1.943,1.184,1.184,0,0,1,.87-.418.816.816,0,0,1,.337.068.736.736,0,0,1,.209.125.751.751,0,0,1,.09.106.33.33,0,0,1,.111-.231.482.482,0,0,1,.307-.079,1.062,1.062,0,0,1,.31.033.228.228,0,0,1,.138.111.427.427,0,0,1,.049.139,1.46,1.46,0,0,1,.008.185V952.6a1.277,1.277,0,0,1-.435,1.008,1.442,1.442,0,0,1-.978.383,1.643,1.643,0,0,1-.788-.2q-.376-.2-.375-.364a.518.518,0,0,1,.164-.375,1.39,1.39,0,0,1,.16-.158.214.214,0,0,1,.133-.043.256.256,0,0,1,.157.065.909.909,0,0,0,.565.2.412.412,0,0,0,.336-.163.61.61,0,0,0,.131-.391Zm-.967-1.111a.442.442,0,0,0,.139.318.453.453,0,0,0,.337.141.424.424,0,0,0,.329-.144.461.461,0,0,0,.13-.316.487.487,0,0,0-.125-.32.415.415,0,0,0-.336-.149.437.437,0,0,0-.342.146A.478.478,0,0,0,5868.249,951.284Z" transform="translate(-5733.777 -928.305)"/><path class="a" d="M6006.739,949.019a.661.661,0,0,1-.166.495.517.517,0,0,1-.367.16h-1.287a.3.3,0,0,0,.179.255.718.718,0,0,0,.359.1,1.492,1.492,0,0,0,.495-.065l.06-.022a.547.547,0,0,1,.217-.06c.116,0,.216.082.3.245a.607.607,0,0,1,.07.25q0,.484-1.157.484a1.748,1.748,0,0,1-.715-.139,1.212,1.212,0,0,1-.485-.367,1.562,1.562,0,0,1-.343-.984,1.42,1.42,0,0,1,.443-1.095,1.566,1.566,0,0,1,1.105-.41,1.235,1.235,0,0,1,1.108.532A1.1,1.1,0,0,1,6006.739,949.019Zm-1.146.16q.207,0,.207-.174a.243.243,0,0,0-.1-.2.423.423,0,0,0-.271-.076.551.551,0,0,0-.351.144.4.4,0,0,0-.174.307Z" transform="translate(-5867.041 -926.344)"/><path class="b" d="M1105.973,776.389l1.126-.1a.756.756,0,0,0,.613-.866.769.769,0,0,0-.7-.744l-.053,0c-.17.043-1.488.4-1.727.9a.446.446,0,0,0,.036.444.845.845,0,0,0,.66.369S1105.969,776.39,1105.973,776.389Z" transform="translate(-1078.352 -756.957)"/><path class="a" d="M1101.8,769.518a.638.638,0,0,1,.575.627.627.627,0,0,1-.5.725l-1.125.1-.037,0c-.306,0-.728-.321-.58-.627.219-.459,1.621-.826,1.621-.826l.042,0m0-.259c-.021,0-.043,0-.064,0a.288.288,0,0,0-.043.007c-.356.093-1.538.437-1.789.963a.572.572,0,0,0,.043.569.97.97,0,0,0,.77.429.476.476,0,0,0,.059,0l1.126-.1a.95.95,0,0,0-.1-1.869Z" transform="translate(-1073.142 -751.671)"/><path class="a" d="M1092.276,763.012a1.178,1.178,0,0,1-.948-.528.787.787,0,0,1-.054-.773c.119-.246.522-.708,1.925-1.075a.485.485,0,0,1,.073-.013c.028,0,.055,0,.087,0a1.159,1.159,0,0,1,.121,2.289l-1.126.1A.769.769,0,0,1,1092.276,763.012Zm1.077-1.713c-.528.141-1.346.458-1.466.707-.008.016-.024.051.017.116a.508.508,0,0,0,.373.209h.02l1.123-.1a.427.427,0,0,0,.305-.5c-.021-.24-.185-.435-.364-.435Z" transform="translate(-1064.703 -743.247)"/><path class="b" d="M166.135,773.02l-1.126-.1a.756.756,0,0,1-.613-.866.769.769,0,0,1,.7-.744l.053,0c.17.043,1.488.4,1.727.9a.446.446,0,0,1-.036.444.845.845,0,0,1-.66.369Z" transform="translate(-160.401 -753.664)"/><path class="a" d="M159.892,766.258a.307.307,0,0,1,.042,0s1.4.366,1.621.826c.148.306-.273.627-.58.627a.265.265,0,0,1-.037,0l-1.125-.1a.627.627,0,0,1-.5-.725.639.639,0,0,1,.575-.627m0-.259h0a.95.95,0,0,0-.1,1.869l1.126.1.059,0a.971.971,0,0,0,.77-.429.573.573,0,0,0,.042-.57c-.251-.526-1.432-.87-1.789-.963a.278.278,0,0,0-.042-.007C159.935,766,159.914,766,159.892,766Z" transform="translate(-155.193 -748.486)"/><path class="a" d="M152.5,759.692c-.026,0-.051,0-.076,0l-1.127-.1a1.159,1.159,0,0,1,.12-2.289.644.644,0,0,1,.084,0,.508.508,0,0,1,.076.013c1.4.367,1.809.832,1.925,1.076a.792.792,0,0,1-.054.772A1.178,1.178,0,0,1,152.5,759.692Zm-1.083-1.713a.437.437,0,0,0-.364.435c-.022.252.118.48.306.5l1.125.1h.018a.505.505,0,0,0,.373-.209c.041-.066.024-.1.017-.116-.119-.25-.938-.567-1.466-.707Z" transform="translate(-146.721 -740.003)"/><path class="a" d="M4.376,445.17a1.186,1.186,0,0,1-.543-.132C3.688,444.966.292,443.19,0,439.908c-.213-2.372,1.235-4.763,4.3-7.107a1.194,1.194,0,0,1,1.449,1.9c-1.632,1.247-3.543,3.125-3.375,5,.176,1.953,2.523,3.207,2.546,3.219a1.194,1.194,0,0,1-.545,2.256Z" transform="translate(0.024 -423.104)"/><path class="a" d="M1168.52,445.167a1.194,1.194,0,0,1-.548-2.255c.045-.024,2.381-1.272,2.549-3.231.161-1.869-1.747-3.743-3.375-4.987a1.194,1.194,0,0,1,1.449-1.9c3.068,2.344,4.516,4.734,4.3,7.107-.294,3.282-3.69,5.057-3.836,5.131A1.188,1.188,0,0,1,1168.52,445.167Z" transform="translate(-1139.944 -423.101)"/><path class="b" d="M162.639,27a4.577,4.577,0,0,0,.432-1.942,4.2,4.2,0,0,0-3.269-4.225,4.581,4.581,0,0,0-4.039-2.813,3.658,3.658,0,0,0-.792.084c-.049.011-.1.024-.151.038a2.959,2.959,0,0,0-.954-1.024,3.739,3.739,0,0,0-2.086-.594,5.424,5.424,0,0,0-3.079,1.027,3.027,3.027,0,0,0-.514-.433,3.731,3.731,0,0,0-2.084-.594,5.541,5.541,0,0,0-3.66,1.5,4.971,4.971,0,0,0-.579.047,6.61,6.61,0,0,0-4.428,2.516,4.955,4.955,0,0,0-.828,3.9c.011.06.024.121.038.18a2.348,2.348,0,0,0-1.032,1.32,7.446,7.446,0,0,0,.7,5.29,3.316,3.316,0,0,0,1.937,1.8,22.492,22.492,0,0,0,3.576.647,4.194,4.194,0,0,0,3.022,1.082,6.412,6.412,0,0,0,1.613-.21,4.434,4.434,0,0,0,1.609.631.267.267,0,0,0,0-.037.752.752,0,0,1,1.284-.532.8.8,0,0,1,.22.532c0,.044,0,.087,0,.131a6.8,6.8,0,0,0,1.391-.229,6.354,6.354,0,0,0,1.521-.629,4.923,4.923,0,0,0,1.533.331.668.668,0,0,1,.42-.149,3.635,3.635,0,0,1,.656.092.551.551,0,0,1,.065.017,6.683,6.683,0,0,0,1.507-.374,5.949,5.949,0,0,0,1.836-1.081,4.038,4.038,0,0,0,1.229.192,3.915,3.915,0,0,0,3.956-3.862A3.816,3.816,0,0,0,162.639,27Z" transform="translate(-132.1 -16.119)"/><path class="a" d="M146.91,10.8a4.989,4.989,0,0,0,.364-1.869,4.625,4.625,0,0,0-3.39-4.574A4.97,4.97,0,0,0,139.567,1.5a4.01,4.01,0,0,0-.756.07,3.413,3.413,0,0,0-.919-.9A4.138,4.138,0,0,0,135.583,0a5.776,5.776,0,0,0-3.035.917,3.444,3.444,0,0,0-.336-.255A4.133,4.133,0,0,0,129.906,0a5.937,5.937,0,0,0-3.821,1.505c-.167.008-.322.024-.476.045a6.916,6.916,0,0,0-4.695,2.678,5.323,5.323,0,0,0-.91,4.124,2.809,2.809,0,0,0-.966,1.375,7.777,7.777,0,0,0,.727,5.613,3.688,3.688,0,0,0,2.19,1.994,23.231,23.231,0,0,0,3.5.645,4.675,4.675,0,0,0,3.2,1.1,6.778,6.778,0,0,0,1.544-.181,4.975,4.975,0,0,0,1.667.607,2.674,2.674,0,0,0,.01-.441.622.622,0,0,1,.084-.356,3.925,3.925,0,0,1-1.615-.674,6.094,6.094,0,0,1-1.69.245,3.715,3.715,0,0,1-2.834-1.068,22.158,22.158,0,0,1-3.666-.648c-1.882-.481-3.068-4.508-2.357-6.569a1.9,1.9,0,0,1,1.121-1.233c-.043-.157-.082-.317-.112-.474-.616-3.278,2-5.536,4.918-5.941a4.72,4.72,0,0,1,.672-.045h.009a5.149,5.149,0,0,1,3.5-1.5,3.329,3.329,0,0,1,1.861.527,2.619,2.619,0,0,1,.666.639h.021A5.059,5.059,0,0,1,135.583.8a3.335,3.335,0,0,1,1.864.527,2.571,2.571,0,0,1,.968,1.182,3.077,3.077,0,0,1,1.151-.214,4.181,4.181,0,0,1,3.754,2.774,3.782,3.782,0,0,1,3.154,3.865,4.149,4.149,0,0,1-.522,2.024A3.4,3.4,0,0,1,147.1,13.5a3.51,3.51,0,0,1-3.556,3.462,3.639,3.639,0,0,1-1.322-.249,5.447,5.447,0,0,1-1.883,1.164,6.155,6.155,0,0,1-2.152.4,4.552,4.552,0,0,1-1.918-.391,5.942,5.942,0,0,1-1.6.692,6.434,6.434,0,0,1-1.344.217.965.965,0,0,1,.053.267,2.913,2.913,0,0,1-.021.533,7.2,7.2,0,0,0,1.522-.244,6.831,6.831,0,0,0,1.449-.575,5.356,5.356,0,0,0,1.254.273.7.7,0,0,1,.666-.531,3.634,3.634,0,0,1,.656.092.6.6,0,0,1,.428.367,7.13,7.13,0,0,0,1.286-.349,6.449,6.449,0,0,0,1.789-1.011,4.431,4.431,0,0,0,1.135.148A4.315,4.315,0,0,0,147.9,13.5a4.213,4.213,0,0,0-.987-2.7Z" transform="translate(-115.903 0)"/><path class="a" d="M1071.838,343.848s-.059-.066-.151-.153-.234-.223-.413-.379-.4-.323-.631-.5c-.247-.16-.5-.364-.775-.512l-.409-.238a3.994,3.994,0,0,0-.41-.2,6.5,6.5,0,0,0-.747-.323l-.753-.258-.021-.007a.2.2,0,0,1,.112-.376l.807.207a6.79,6.79,0,0,1,.809.278,4.305,4.305,0,0,1,.449.182l.45.217c.309.135.585.326.862.477.264.17.512.333.714.486s.372.281.489.385l.175.153a.4.4,0,1,1-.56.568Z" transform="translate(-1041.483 -333.118)"/><path class="a" d="M385.392,65.894a4,4,0,0,0-.281.374,4.422,4.422,0,0,0-.488.934,2.875,2.875,0,0,0-.144.54,2.212,2.212,0,0,0-.009.487,2.013,2.013,0,0,0,.131.466l-.1.036a.011.011,0,0,0-.007.005.011.011,0,0,0,0,.009.012.012,0,0,0,.015.007h0a2.122,2.122,0,0,1-.249-.473,2.461,2.461,0,0,1-.107-.547,3.234,3.234,0,0,1,.029-.639,5.037,5.037,0,0,1,.317-1.147c.062-.151.117-.275.161-.362l.073-.139,0,0a.4.4,0,1,1,.717.37A.424.424,0,0,1,385.392,65.894Z" transform="translate(-374.818 -63.638)"/><path class="a" d="M869.151,460.653a2.792,2.792,0,0,0-.259-.186,6.375,6.375,0,0,0-.689-.41c-.151-.076-.312-.161-.481-.253a3.7,3.7,0,0,0-.557-.243l-.6-.244-.3-.125-.334-.1c-.22-.066-.446-.155-.659-.2l-.628-.161c-.414-.092-.809-.163-1.146-.239-.68-.1-1.14-.194-1.14-.194l-.011,0a.144.144,0,0,1,.02-.286s.471-.027,1.186-.03l.574.046c.2.024.42.029.643.073l.688.132c.241.042.452.12.68.18l.335.1.342.143.638.282a2.982,2.982,0,0,1,.577.3l.489.326a2.192,2.192,0,0,1,.395.309l.287.265a1.338,1.338,0,0,1,.162.179l.054.065,0,0a.191.191,0,0,1-.27.267Z" transform="translate(-841.299 -447.528)"/><path class="a" d="M544.683,560.479a2.75,2.75,0,0,0,.3.1,6.436,6.436,0,0,0,.782.179c.167.026.347.057.534.093a3.7,3.7,0,0,0,.6.061l.648.047.32.028.35-.006c.23-.005.472.01.687-.015l.647-.039c.422-.039.82-.093,1.164-.124.678-.112,1.144-.164,1.144-.164h.011a.144.144,0,0,1,.16.127.146.146,0,0,1-.091.151s-.44.17-1.119.392l-.56.133c-.2.04-.409.1-.634.129l-.7.086c-.243.034-.467.024-.7.037l-.35.007-.37-.032-.694-.073a3.013,3.013,0,0,1-.642-.11l-.565-.16a2.2,2.2,0,0,1-.471-.173l-.354-.164a2.177,2.177,0,0,1-.208-.12l-.072-.046,0,0a.191.191,0,0,1,.175-.337Z" transform="translate(-531.204 -547.629)"/><path class="a" d="M265.569,466.778c0,.006.077-.086.21-.212s.327-.3.571-.5a9.129,9.129,0,0,1,1.927-1.19,7.44,7.44,0,0,1,1.127-.418,4.835,4.835,0,0,1,.534-.133,3.626,3.626,0,0,1,.486-.085,5.187,5.187,0,0,1,.731-.064l.276-.011a.051.051,0,0,1,.054.049.052.052,0,0,1-.044.053h0l-.27.041a5.238,5.238,0,0,0-.7.14,3.481,3.481,0,0,0-.458.132,4.635,4.635,0,0,0-.5.183,7.015,7.015,0,0,0-1.024.513,8.56,8.56,0,0,0-1.675,1.3c-.205.2-.363.383-.469.51s-.151.193-.157.2a.4.4,0,1,1-.615-.51Z" transform="translate(-259.021 -453.59)"/><path class="c" d="M933.618,640.916l.156-.014c.053,0,.1-.013.186-.013l.288.006a3.9,3.9,0,0,1,1.314.362,6.6,6.6,0,0,1,1.117.67c.283.211.459.374.459.374a.209.209,0,0,1-.267.321l0,0a5.305,5.305,0,0,0-.454-.3,6.051,6.051,0,0,0-1.08-.5,3.216,3.216,0,0,0-1.1-.187l-.177.013a1.693,1.693,0,0,0-.168.03l-.153.03a.4.4,0,1,1-.158-.785A.293.293,0,0,1,933.618,640.916Z" transform="translate(-910.594 -626.229)"/><path class="a" d="M816.194,72.4s-.191.038-.5.134a5.967,5.967,0,0,0-1.057.439,3.723,3.723,0,0,0-.507.327,2.513,2.513,0,0,0-.37.359,1.554,1.554,0,0,0-.189.305l-.058.124-.011.024a.134.134,0,0,1-.25-.093l.045-.159a1.868,1.868,0,0,1,.17-.4,2.871,2.871,0,0,1,.364-.483,4.2,4.2,0,0,1,.513-.454,6.622,6.622,0,0,1,1.082-.656c.3-.15.534-.235.534-.235l.011,0a.4.4,0,1,1,.279.753A.4.4,0,0,1,816.194,72.4Z" transform="translate(-793.505 -69.868)"/><path class="a" d="M185.089,336.1l-.134-.059c-.045-.02-.092-.037-.158-.071l-.237-.137a3.26,3.26,0,0,1-.912-.924,5.238,5.238,0,0,1-.542-1.1,5.011,5.011,0,0,1-.157-.534.178.178,0,0,1,.343-.1v0a4.217,4.217,0,0,0,.2.463,4.722,4.722,0,0,0,.611.921,3.137,3.137,0,0,0,.411.388,1.833,1.833,0,0,0,.207.143c.071.035.133.084.189.1l.148.065c.051.019.114.034.156.047l.14.041a.4.4,0,1,1-.221.771Z" transform="translate(-178.502 -325.462)"/><path class="b" d="M366.64,222.856a3.638,3.638,0,1,1,3.637-3.638A3.644,3.644,0,0,1,366.64,222.856Z" transform="translate(-354.186 -210.731)"/><path class="a" d="M357.068,206.208a3.4,3.4,0,1,1-3.4,3.4,3.4,3.4,0,0,1,3.4-3.4m0-.478a3.877,3.877,0,1,0,3.878,3.877A3.881,3.881,0,0,0,357.068,205.73Z" transform="translate(-344.614 -201.112)"/><path class="a" d="M416.633,266.716a2.457,2.457,0,1,1-2.456-2.456,2.457,2.457,0,0,1,2.456,2.456Z" transform="translate(-401.723 -258.267)"/><path class="b" d="M414.394,265.592a1.332,1.332,0,1,1-1.332-1.332,1.332,1.332,0,0,1,1.332,1.332Z" transform="translate(-401.733 -258.228)"/><path class="b" d="M524.233,329.932a.542.542,0,1,1-.542-.542A.542.542,0,0,1,524.233,329.932Z" transform="translate(-510.448 -321.843)"/><path class="b" d="M748.438,222.856a3.638,3.638,0,1,1,3.638-3.638A3.642,3.642,0,0,1,748.438,222.856Z" transform="translate(-726.717 -210.731)"/><path class="a" d="M738.827,206.208a3.4,3.4,0,1,1-3.4,3.4,3.4,3.4,0,0,1,3.4-3.4m0-.478a3.877,3.877,0,1,0,3.878,3.877A3.881,3.881,0,0,0,738.827,205.73Z" transform="translate(-717.106 -201.112)"/><path class="a" d="M798.364,266.716a2.457,2.457,0,1,1-2.457-2.456,2.457,2.457,0,0,1,2.457,2.456Z" transform="translate(-774.185 -258.267)"/><path class="b" d="M796.115,265.592a1.332,1.332,0,1,1-1.332-1.332,1.332,1.332,0,0,1,1.332,1.332Z" transform="translate(-774.185 -258.228)"/><path class="b" d="M905.974,329.932a.542.542,0,1,1-.542-.542A.542.542,0,0,1,905.974,329.932Z" transform="translate(-882.92 -321.843)"/><path class="a" d="M652.567,309.251l-.277-.457a2.418,2.418,0,0,1,2.428-.054l-.257.468A1.882,1.882,0,0,0,652.567,309.251Z" transform="translate(-636.453 -301.369)"/><path class="d" d="M207.381,639a5.923,5.923,0,0,0-4.207,1.727l-1.935,1.856-1.9-1.829a5.986,5.986,0,1,0-4.234,10.219,5.912,5.912,0,0,0,4.207-1.73l1.933-1.854,1.906,1.829A5.986,5.986,0,1,0,207.381,639Zm-10.5,7.769a2.579,2.579,0,0,1-3.564,0,2.522,2.522,0,1,1,3.594-3.539l1.831,1.76Zm12.28,0a2.56,2.56,0,0,1-3.588-.024l-1.831-1.76L205.6,643.2a2.585,2.585,0,0,1,3.566,0,2.525,2.525,0,0,1,0,3.569Z" transform="translate(-184.525 -624.973)"/><path class="b" d="M88.624,814.807a2.105,2.105,0,0,1-.312-.03c-.07-.01-.14-.021-.213-.026l-.134-.005a.883.883,0,0,1-.677-.23,1.2,1.2,0,0,1-.2-.624.912.912,0,0,1-.447-.442,1.822,1.822,0,0,1-.1-1.09,3.511,3.511,0,0,1-.4-.993,1.976,1.976,0,0,1,.338-1.026,2.46,2.46,0,0,1,.159-1.126,1.617,1.617,0,0,1,1.572-.682c.109,0,.217,0,.32.005l.1,0c1.19.026,1.675.616,1.675,2.036v1.9a2.141,2.141,0,0,1-1.438,2.3A.99.99,0,0,1,88.624,814.807Z" transform="translate(-84.055 -790.387)"/><path class="a" d="M82.974,803.5c.146,0,.286,0,.419.008,1.113.024,1.549.563,1.549,1.906v1.9c0,1.343-.646,1.994-1.341,2.174a.881.881,0,0,1-.222.027c-.172,0-.336-.043-.516-.056-.267-.017-.51.02-.728-.2a1.437,1.437,0,0,1-.166-.619.854.854,0,0,1-.449-.4,1.625,1.625,0,0,1-.076-1.059,3.851,3.851,0,0,1-.409-.987,1.963,1.963,0,0,1,.34-.982,2.475,2.475,0,0,1,.141-1.1,1.505,1.505,0,0,1,1.459-.615m0-.259h0a1.752,1.752,0,0,0-1.686.749,2.468,2.468,0,0,0-.178,1.154,2.024,2.024,0,0,0-.335,1.068,3.327,3.327,0,0,0,.391,1,1.967,1.967,0,0,0,.111,1.117,1.009,1.009,0,0,0,.447.479,1.2,1.2,0,0,0,.226.633,1.007,1.007,0,0,0,.766.267c.042,0,.086,0,.129.006.069,0,.136.015.2.024a2.174,2.174,0,0,0,.332.032,1.117,1.117,0,0,0,.286-.036,2.262,2.262,0,0,0,1.536-2.424v-1.9c0-1.49-.539-2.137-1.8-2.165l-.1,0C83.192,803.243,83.084,803.24,82.973,803.24Z" transform="translate(-78.81 -785.225)"/><path class="a" d="M75.009,801.516a2.382,2.382,0,0,1-.361-.034c-.068-.01-.127-.019-.186-.023l-.1,0h-.028a1.22,1.22,0,0,1-.907-.33,1.2,1.2,0,0,1-.271-.656,1.158,1.158,0,0,1-.448-.528,2.206,2.206,0,0,1-.134-1.161,3.234,3.234,0,0,1-.38-1.022,2.113,2.113,0,0,1,.332-1.138,2.529,2.529,0,0,1,.206-1.2,1.965,1.965,0,0,1,1.869-.859c.121,0,.24,0,.33.006l.1,0c1.389.031,2.008.763,2.008,2.376v1.9a2.459,2.459,0,0,1-1.693,2.628A1.331,1.331,0,0,1,75.009,801.516Zm-.4-6.276c-.517,0-1.029.061-1.275.506a2.2,2.2,0,0,0-.115.977l.006.075-.042.062a1.709,1.709,0,0,0-.305.848,3.47,3.47,0,0,0,.382.9l.047.083-.032.09a1.419,1.419,0,0,0,.073.911.634.634,0,0,0,.329.285l.124.049.01.133a1.348,1.348,0,0,0,.107.487c.113.113.231.121.445.128.049,0,.1,0,.146.006.086.006.165.017.241.029a1.833,1.833,0,0,0,.261.026.67.67,0,0,0,.17-.02c.355-.092,1.183-.468,1.183-1.97v-1.9c0-1.23-.351-1.675-1.343-1.7l-.087,0C74.825,795.243,74.715,795.24,74.6,795.24Z" transform="translate(-70.441 -776.756)"/><path class="b" d="M193.39,995.583a4.952,4.952,0,0,0,.967-.381.446.446,0,0,1,.607.237h0a.549.549,0,0,1-.219.72,5.742,5.742,0,0,1-1.905.621" transform="translate(-188.157 -972.481)"/><path class="a" d="M193.292,991.07l.179-.089c.113-.054.285-.125.467-.233l.31-.166a.506.506,0,0,1,.473.011.671.671,0,0,1,.194.166,1.2,1.2,0,0,1,.075.12l.038.1a.692.692,0,0,1-.058.532.756.756,0,0,1-.392.317c-.13.059-.254.117-.385.166a4.7,4.7,0,0,1-.73.2,3.149,3.149,0,0,1-.525.064l-.2.009.19-.063c.121-.036.293-.086.493-.163a7.04,7.04,0,0,0,.668-.272c.121-.052.243-.127.371-.186a.48.48,0,0,0,.264-.209.448.448,0,0,0,.049-.3l-.034-.1-.035-.06a.418.418,0,0,0-.109-.107.3.3,0,0,0-.275-.034L194,990.9a2.824,2.824,0,0,1-.508.138Z" transform="translate(-188.06 -967.968)"/><path class="a" d="M130.34,984.063l1.45-.475.189-.063.022-.007c.117-.035.278-.083.461-.153l.015-.005a4.357,4.357,0,0,0,.463-.184l.183-.08c.056-.024.116-.056.18-.09s.121-.064.186-.094c.126-.057.142-.077.17-.125l0-.006a.248.248,0,0,0,.022-.132l-.023-.066-.018-.031a.248.248,0,0,0-.039-.042c-.058-.029-.067-.028-.1-.018l-.16.06-.156.058a2.048,2.048,0,0,1-.423.121c-.043.009-.08.016-.109.024l-.016,0-.2.037-1.505.286,1.553-.77.086-.04a3.957,3.957,0,0,0,.368-.185l.007,0,.308-.165a.712.712,0,0,1,.671.008.868.868,0,0,1,.26.219l.014.019.016.023a1.151,1.151,0,0,1,.069.113l.011.024.044.118a.9.9,0,0,1-.073.683.978.978,0,0,1-.5.417l-.037.017c-.115.052-.233.107-.357.152a4.889,4.889,0,0,1-.758.208,2.4,2.4,0,0,1-.441.06c-.039,0-.074,0-.106.008h-.012l-.2.009Z" transform="translate(-127.175 -959.489)"/><path class="b" d="M190.271,943.286a.624.624,0,0,1,.807.4h0a.734.734,0,0,1-.364.954,7.636,7.636,0,0,1-1.954.534" transform="translate(-184.177 -921.83)"/><path class="a" d="M190.164,941.951a.66.66,0,0,1,.17-.065.592.592,0,0,1,.486.121.809.809,0,0,1,.225.269,1.067,1.067,0,0,1,.074.172.959.959,0,0,1,.03.215.823.823,0,0,1-.434.746,3.728,3.728,0,0,1-.383.139l-.359.112a2.943,2.943,0,0,1-.664.13c-.4.046-.658.053-.658.053s.25-.1.617-.206l.3-.084c.105-.03.212-.088.327-.128l.352-.134a3.552,3.552,0,0,0,.343-.132.6.6,0,0,0,.316-.5c0-.051,0-.09,0-.143a1.151,1.151,0,0,0-.038-.153.641.641,0,0,0-.144-.236.555.555,0,0,0-.375-.186A.841.841,0,0,0,190.164,941.951Z" transform="translate(-184.069 -920.494)"/><path class="a" d="M139.31,923.432l1.124-.437c.011,0,.262-.1.634-.212l.3-.084a1.294,1.294,0,0,0,.152-.059c.05-.022.1-.044.16-.064l.348-.133c.042-.016.09-.033.136-.049a1.461,1.461,0,0,0,.178-.069l.016-.008a.4.4,0,0,0,.194-.326.469.469,0,0,0,0-.061c0-.012,0-.024,0-.037a.329.329,0,0,0-.011-.049c0-.012-.006-.029-.009-.04l-.006-.017a.444.444,0,0,0-.093-.159l-.008-.008a.349.349,0,0,0-.221-.118h-.014a.415.415,0,0,0-.11.007l-.019,0a.2.2,0,0,1-.08,0l-.022-.006-.073-.021-.029-.053-.059-.062.149-.656.176.325.032-.007a.807.807,0,0,1,.657.16,1.015,1.015,0,0,1,.28.332.8.8,0,0,1,.067.148c0,.014.01.027.017.043l.007.016,0,.017a1.165,1.165,0,0,1,.036.262,1.03,1.03,0,0,1-.55.937,1.968,1.968,0,0,1-.284.108c-.041.013-.079.024-.119.04l-.011,0-.354.11a2.907,2.907,0,0,1-.651.133l-.055.007c-.4.047-.668.054-.679.055Z" transform="translate(-135.927 -899.843)"/><path class="b" d="M190.271,875.1a.625.625,0,0,1,.807.4h0a.734.734,0,0,1-.364.954,7.644,7.644,0,0,1-1.954.534" transform="translate(-184.177 -855.047)"/><path class="a" d="M190.2,873.761a.677.677,0,0,1,.17-.064.6.6,0,0,1,.487.121.812.812,0,0,1,.224.269,1.04,1.04,0,0,1,.074.172.958.958,0,0,1,.03.214.826.826,0,0,1-.434.746,3.65,3.65,0,0,1-.383.139l-.359.112a2.981,2.981,0,0,1-.664.13c-.4.047-.658.053-.658.053s.25-.1.617-.206l.3-.084c.105-.03.212-.088.327-.128l.352-.135a3.511,3.511,0,0,0,.343-.132.6.6,0,0,0,.316-.5c0-.051,0-.09,0-.142a1.131,1.131,0,0,0-.038-.152.646.646,0,0,0-.144-.237.558.558,0,0,0-.375-.186A.814.814,0,0,0,190.2,873.761Z" transform="translate(-184.108 -853.71)"/><path class="a" d="M139.55,855.211l1.117-.436c.011,0,.262-.1.634-.212l.3-.084a1.282,1.282,0,0,0,.152-.059c.051-.022.1-.044.16-.064l.3-.114.05-.019.132-.049a1.479,1.479,0,0,0,.182-.071l.016-.008a.4.4,0,0,0,.194-.326.468.468,0,0,0,0-.061c0-.012,0-.024,0-.038a.367.367,0,0,0-.01-.049c0-.012-.006-.029-.009-.04l-.006-.017a.448.448,0,0,0-.094-.16l-.007-.007a.353.353,0,0,0-.223-.119h-.014a.435.435,0,0,0-.11.006l-.019,0a.206.206,0,0,1-.079,0l-.024-.006-.073-.021-.028-.052-.059-.062.149-.654.177.326.032-.007a.811.811,0,0,1,.657.16,1.022,1.022,0,0,1,.279.332.813.813,0,0,1,.067.149c0,.014.01.027.017.043l.007.016,0,.017a1.2,1.2,0,0,1,.036.262,1.032,1.032,0,0,1-.55.937,1.86,1.86,0,0,1-.286.109c-.041.013-.079.024-.119.039l-.011,0-.354.11a2.9,2.9,0,0,1-.643.132l-.062.007c-.4.049-.669.054-.68.055Z" transform="translate(-136.161 -833.28)"/><path class="b" d="M188.74,816.168a7.714,7.714,0,0,0,1.954-.534.835.835,0,0,0,.364-.956c-.081-.516-1.625-.449-2.132-.453" transform="translate(-184.157 -795.607)"/><path class="a" d="M188.74,813.341s.323-.112.813-.246a8,8,0,0,0,.8-.3l.22-.083.056-.021c-.011.009.027-.016.039-.023.029-.022.085-.042.093-.063a.6.6,0,0,0,.162-.35.992.992,0,0,0-.02-.432.62.62,0,0,0-.307-.182,4.393,4.393,0,0,0-.827-.153l-.61-.06-.234-.027a7.375,7.375,0,0,1,.85-.071,3.674,3.674,0,0,1,.889.073.7.7,0,0,1,.5.331,1.231,1.231,0,0,1,.042.566.827.827,0,0,1-.286.53.461.461,0,0,1-.113.073.539.539,0,0,1-.071.034l-.06.019-.236.075a5.68,5.68,0,0,1-.851.221C189.081,813.318,188.74,813.341,188.74,813.341Z" transform="translate(-184.157 -792.779)"/><path class="a" d="M124.39,805.209l1.493-.518c.013,0,.335-.116.825-.251l.014,0a2.29,2.29,0,0,0,.419-.152c.112-.049.228-.1.354-.142l.144-.054.114-.043.013-.008a.539.539,0,0,1,.054-.032l.015-.013a.4.4,0,0,0,.091-.214v-.01a.926.926,0,0,0,0-.295.609.609,0,0,0-.173-.084h-.005a4.148,4.148,0,0,0-.786-.146l-.61-.06-1.744-.2,1.5-.243a7.609,7.609,0,0,1,.877-.073h.046a3.657,3.657,0,0,1,.9.078l.024.007.074.024a.814.814,0,0,1,.533.4l.009.016.006.018a1.29,1.29,0,0,1,.064.5l-.019.2a1.031,1.031,0,0,1-.349.626.466.466,0,0,1-.121.083l-.016.009-.027.015a.533.533,0,0,1-.082.039l-.015.006-.3.095c-.085.024-.17.049-.251.075a3.454,3.454,0,0,1-.631.153c-.5.068-.841.092-.855.093Z" transform="translate(-121.369 -784.34)"/><path class="b" d="M1117.623,818.166a2.063,2.063,0,0,0,.312-.03c.07-.01.14-.021.213-.026l.134-.005a.881.881,0,0,0,.677-.23,1.2,1.2,0,0,0,.2-.624.912.912,0,0,0,.447-.442,1.824,1.824,0,0,0,.1-1.091,3.506,3.506,0,0,0,.4-.993,1.969,1.969,0,0,0-.338-1.025,2.455,2.455,0,0,0-.159-1.126,1.617,1.617,0,0,0-1.573-.682c-.109,0-.217,0-.32.005l-.1,0c-1.19.026-1.675.616-1.675,2.036v1.9a2.141,2.141,0,0,0,1.438,2.3A.983.983,0,0,0,1117.623,818.166Z" transform="translate(-1088.836 -793.666)"/><path class="a" d="M1112.8,806.819a1.5,1.5,0,0,1,1.459.615,2.478,2.478,0,0,1,.14,1.1,1.949,1.949,0,0,1,.34.982,3.85,3.85,0,0,1-.409.987,1.625,1.625,0,0,1-.076,1.059.853.853,0,0,1-.449.4,1.44,1.44,0,0,1-.167.619c-.219.219-.461.18-.728.2-.18.013-.344.056-.516.056a.878.878,0,0,1-.221-.027c-.7-.18-1.342-.831-1.342-2.174v-1.9c0-1.344.437-1.882,1.548-1.906.133,0,.275-.008.419-.008m0-.259c-.111,0-.219,0-.323.005l-.1,0c-1.262.028-1.8.676-1.8,2.165v1.9a2.262,2.262,0,0,0,1.535,2.424,1.116,1.116,0,0,0,.286.035,2.158,2.158,0,0,0,.332-.032c.066-.01.133-.02.2-.024.044,0,.087,0,.13-.006a1.012,1.012,0,0,0,.766-.268,1.2,1.2,0,0,0,.226-.633,1,1,0,0,0,.447-.479,1.97,1.97,0,0,0,.111-1.117,3.336,3.336,0,0,0,.391-1,2.024,2.024,0,0,0-.335-1.068,2.466,2.466,0,0,0-.178-1.154,1.752,1.752,0,0,0-1.686-.749Z" transform="translate(-1083.606 -788.465)"/><path class="a" d="M1103.953,804.836a1.332,1.332,0,0,1-.34-.042,2.46,2.46,0,0,1-1.693-2.628v-1.9c0-1.612.619-2.345,2.008-2.376l.1,0c.088,0,.207-.006.328-.006a1.964,1.964,0,0,1,1.87.859,2.525,2.525,0,0,1,.206,1.2,2.124,2.124,0,0,1,.332,1.138,3.226,3.226,0,0,1-.381,1.022,2.2,2.2,0,0,1-.135,1.161,1.161,1.161,0,0,1-.448.529,1.19,1.19,0,0,1-.27.653,1.221,1.221,0,0,1-.909.331h-.024c-.031,0-.063,0-.1,0-.059,0-.119.013-.185.023A2.4,2.4,0,0,1,1103.953,804.836Zm.4-6.276c-.111,0-.221,0-.327.006l-.087,0c-.991.022-1.343.465-1.343,1.7v1.9c0,1.5.828,1.878,1.184,1.97a.659.659,0,0,0,.17.02,1.816,1.816,0,0,0,.261-.026c.076-.011.155-.023.24-.029.05,0,.1,0,.147-.006.214-.006.331-.015.447-.131a1.378,1.378,0,0,0,.105-.486l.01-.135.126-.049a.632.632,0,0,0,.328-.285,1.437,1.437,0,0,0,.073-.911l-.032-.09.047-.083a3.445,3.445,0,0,0,.382-.9,1.709,1.709,0,0,0-.305-.848l-.042-.062.006-.075a2.2,2.2,0,0,0-.115-.977C1105.387,798.621,1104.875,798.56,1104.358,798.56Z" transform="translate(-1075.166 -779.996)"/><path class="b" d="M1092.818,998.9a4.946,4.946,0,0,1-.967-.381.446.446,0,0,0-.607.236h0a.549.549,0,0,0,.219.72,5.746,5.746,0,0,0,1.905.621" transform="translate(-1064.695 -975.72)"/><path class="a" d="M1087.358,994.391l-.179-.089c-.113-.054-.284-.125-.467-.233l-.31-.166a.506.506,0,0,0-.473.011.668.668,0,0,0-.194.166,1.135,1.135,0,0,0-.075.12l-.038.1a.69.69,0,0,0,.057.532.756.756,0,0,0,.392.317c.13.059.255.117.385.165a4.685,4.685,0,0,0,.73.2,3.147,3.147,0,0,0,.525.064l.2.009-.19-.063c-.122-.036-.293-.086-.493-.163a7.036,7.036,0,0,1-.668-.272c-.121-.052-.243-.127-.371-.186a.48.48,0,0,1-.264-.209.449.449,0,0,1-.049-.3l.034-.1s.024-.041.034-.06a.424.424,0,0,1,.109-.107.3.3,0,0,1,.274-.034l.325.121a2.813,2.813,0,0,0,.51.138Z" transform="translate(-1059.235 -971.207)"/><path class="a" d="M1080.9,987.407l-1.525-.064-.2-.01h-.012c-.031,0-.067-.005-.106-.008a2.422,2.422,0,0,1-.442-.059,4.88,4.88,0,0,1-.757-.208c-.125-.046-.243-.1-.358-.152l-.037-.017a.976.976,0,0,1-.5-.417.9.9,0,0,1-.073-.683l.006-.018.049-.125a1.039,1.039,0,0,1,.069-.113l.029-.042a.872.872,0,0,1,.257-.217.688.688,0,0,1,.343-.09.7.7,0,0,1,.332.08l.308.165.007,0a3.957,3.957,0,0,0,.368.185l.083.038,1.554.772-1.505-.286-.2-.037-.016,0c-.029-.008-.066-.015-.109-.024a2.05,2.05,0,0,1-.423-.121l-.156-.058-.16-.06c-.032-.01-.04-.011-.1.018a.248.248,0,0,0-.039.042l-.018.031-.023.066a.245.245,0,0,0,.022.131l0,.006c.029.049.044.068.17.124.066.03.128.063.187.094s.124.066.18.09l.183.08a4.284,4.284,0,0,0,.462.184l.015.005c.184.071.345.118.461.153l.022.007.189.063Z" transform="translate(-1050.71 -962.752)"/><path class="b" d="M1088.065,946.586a.624.624,0,0,0-.807.4h0a.734.734,0,0,0,.364.955,7.641,7.641,0,0,0,1.954.534" transform="translate(-1060.804 -925.049)"/><path class="a" d="M1083.25,945.252a.642.642,0,0,0-.17-.065.592.592,0,0,0-.486.121.81.81,0,0,0-.225.269.777.777,0,0,0-.1.386.822.822,0,0,0,.434.746,3.656,3.656,0,0,0,.383.139l.359.112a2.934,2.934,0,0,0,.664.13c.4.046.658.053.658.053s-.25-.1-.617-.206l-.3-.084c-.1-.03-.211-.088-.327-.128l-.352-.135a3.455,3.455,0,0,1-.343-.132.6.6,0,0,1-.316-.5c0-.051,0-.09,0-.142a1.213,1.213,0,0,1,.038-.153.646.646,0,0,1,.146-.236.553.553,0,0,1,.375-.185A.834.834,0,0,1,1083.25,945.252Z" transform="translate(-1055.99 -923.715)"/><path class="a" d="M1077.386,926.694l-1.206-.031c-.011,0-.275-.008-.677-.054l-.055-.007a2.909,2.909,0,0,1-.651-.134l-.355-.11-.011,0c-.04-.015-.079-.027-.12-.04a1.927,1.927,0,0,1-.281-.106,1.033,1.033,0,0,1-.554-.939,1.169,1.169,0,0,1,.037-.262l0-.017.007-.017c.007-.016.012-.029.017-.043a.8.8,0,0,1,.067-.148,1.011,1.011,0,0,1,.28-.332.807.807,0,0,1,.658-.16l.031.007.177-.327.149.654-.059.062-.029.053-.073.021-.023.006a.2.2,0,0,1-.08,0,.063.063,0,0,1-.019,0,.423.423,0,0,0-.11-.007h-.014a.348.348,0,0,0-.221.118l-.008.008a.451.451,0,0,0-.094.159l-.006.017-.008.04c0,.017-.007.034-.01.049a.259.259,0,0,0,0,.038.467.467,0,0,0,0,.061.394.394,0,0,0,.194.326l.016.009a1.469,1.469,0,0,0,.178.069c.046.016.094.033.138.05l.346.133c.057.02.11.042.161.064a1.28,1.28,0,0,0,.151.059l.3.084c.375.111.626.209.636.213Z" transform="translate(-1047.413 -903.024)"/><path class="b" d="M1088.065,878.417a.626.626,0,0,0-.807.4h0a.734.734,0,0,0,.364.954,7.648,7.648,0,0,0,1.954.534" transform="translate(-1060.804 -858.291)"/><path class="a" d="M1083.2,877.081a.678.678,0,0,0-.17-.064.6.6,0,0,0-.487.121.814.814,0,0,0-.224.269.923.923,0,0,0-.073.172.948.948,0,0,0-.03.214.825.825,0,0,0,.434.746,3.351,3.351,0,0,0,.383.139l.359.112a2.978,2.978,0,0,0,.664.13c.4.047.658.053.658.053s-.25-.1-.617-.206l-.3-.084c-.105-.03-.211-.088-.326-.128l-.352-.135a3.517,3.517,0,0,1-.343-.132.6.6,0,0,1-.316-.5c0-.051,0-.09,0-.142a1.2,1.2,0,0,1,.038-.153.649.649,0,0,1,.146-.236.557.557,0,0,1,.375-.186A.81.81,0,0,1,1083.2,877.081Z" transform="translate(-1055.942 -856.954)"/><path class="a" d="M1077.38,858.551l-1.2-.029c-.011,0-.275-.007-.678-.054l-.063-.008a2.9,2.9,0,0,1-.643-.132l-.354-.11-.011,0c-.04-.015-.078-.027-.119-.039a1.867,1.867,0,0,1-.283-.107,1.033,1.033,0,0,1-.553-.939,1.163,1.163,0,0,1,.037-.262l0-.017.007-.016c.007-.016.011-.03.016-.043a.827.827,0,0,1,.068-.149,1.016,1.016,0,0,1,.279-.332.813.813,0,0,1,.657-.159l.032.007.178-.327.149.654-.059.062-.029.053-.073.021-.024.007a.205.205,0,0,1-.079,0l-.019,0a.427.427,0,0,0-.109-.006h-.013a.351.351,0,0,0-.223.118l-.007.007a.451.451,0,0,0-.094.16l-.006.017c0,.011-.006.028-.009.04l-.01.049a.255.255,0,0,0,0,.038.461.461,0,0,0,0,.061.4.4,0,0,0,.194.326l.016.008a1.456,1.456,0,0,0,.182.071c.047.016.093.033.134.049l.054.021.292.112c.057.02.109.042.16.064a1.269,1.269,0,0,0,.151.058l.3.084c.374.111.626.208.636.213Z" transform="translate(-1047.413 -836.539)"/><path class="b" d="M1091.124,819.488a7.715,7.715,0,0,1-1.954-.534.836.836,0,0,1-.364-.956c.081-.516,1.625-.449,2.132-.453" transform="translate(-1062.352 -798.851)"/><path class="a" d="M1085.463,816.661s-.323-.112-.813-.246a7.963,7.963,0,0,1-.8-.3l-.221-.083-.056-.021a.374.374,0,0,1-.038-.023c-.029-.022-.086-.042-.093-.063a.6.6,0,0,1-.162-.35.993.993,0,0,1,.02-.432.618.618,0,0,1,.307-.183,4.422,4.422,0,0,1,.825-.153l.61-.06.234-.027a7.351,7.351,0,0,0-.85-.071,3.676,3.676,0,0,0-.889.073.7.7,0,0,0-.5.331,1.236,1.236,0,0,0-.042.566.828.828,0,0,0,.286.53.467.467,0,0,0,.113.073.539.539,0,0,0,.071.034l.06.019.236.075a5.683,5.683,0,0,0,.851.221C1085.122,816.638,1085.463,816.661,1085.463,816.661Z" transform="translate(-1056.691 -796.023)"/><path class="a" d="M1078.623,808.557l-1.577-.108c-.014,0-.352-.024-.856-.093a3.411,3.411,0,0,1-.631-.153c-.082-.024-.165-.051-.251-.075l-.007,0-.311-.1a.536.536,0,0,1-.08-.038l-.014-.007-.015-.01-.016-.009a.474.474,0,0,1-.121-.083,1.025,1.025,0,0,1-.349-.626l-.019-.194a1.286,1.286,0,0,1,.064-.5l.006-.018.009-.017a.813.813,0,0,1,.533-.4l.074-.024.024-.007a3.69,3.69,0,0,1,.9-.079h.046a7.574,7.574,0,0,1,.876.073l1.5.243-1.74.2-.613.061a4.15,4.15,0,0,0-.788.146h-.005a.609.609,0,0,0-.173.084.92.92,0,0,0,0,.3v.009a.4.4,0,0,0,.091.214l.015.013a.589.589,0,0,1,.054.032l.012.008.113.043.146.055c.126.043.243.093.354.142a2.317,2.317,0,0,0,.419.152l.013,0c.492.135.813.246.826.25Z" transform="translate(-1048.288 -787.612)"/><path class="d" d="M1511.6,46.1a5.434,5.434,0,0,1,4,1.934,6.444,6.444,0,0,1,.013,8.974,5.323,5.323,0,0,1-3.894,1.922,3.465,3.465,0,0,1-2.962-1.175q-.2,1.2-2.106,1.2-1.542,0-1.885-.661a2.27,2.27,0,0,1-.208-.649,7.226,7.226,0,0,1-.037-.845V42.18a7.076,7.076,0,0,1,.037-.845,2.005,2.005,0,0,1,.208-.624q.343-.661,1.91-.661,1.543,0,1.861.661a1.958,1.958,0,0,1,.233.649,7.125,7.125,0,0,1,.037.845V47.3A3.393,3.393,0,0,1,1511.6,46.1Zm-2.143,7.909a1.947,1.947,0,0,0,1.505.661,2.219,2.219,0,0,0,2.179-2.13,2.2,2.2,0,0,0-.587-1.481,1.977,1.977,0,0,0-1.567-.673,1.921,1.921,0,0,0-1.554.686,2.262,2.262,0,0,0-.575,1.481A2.125,2.125,0,0,0,1509.452,54.007Z" transform="translate(-1470.136 -39.078)"/><path class="d" d="M2135.505,283.369a1.66,1.66,0,0,1,.771.5,1.728,1.728,0,0,1,.306,1.138,3.877,3.877,0,0,1-.465,1.714,1.458,1.458,0,0,1-1.347.93,1.908,1.908,0,0,1-.844-.2,2.457,2.457,0,0,0-1.065-.2,1.929,1.929,0,0,0-1.236.465,1.4,1.4,0,0,0-.576,1.126V294a7.129,7.129,0,0,1-.037.845,1.963,1.963,0,0,1-.233.649q-.367.637-1.91.637a2.7,2.7,0,0,1-1.69-.416,1.468,1.468,0,0,1-.441-1.053v-9.3a7.088,7.088,0,0,1,.037-.845,2,2,0,0,1,.208-.624q.342-.661,1.91-.661,1.469,0,1.836.563a1.41,1.41,0,0,1,.27.808,4.09,4.09,0,0,1,.355-.416,4.546,4.546,0,0,1,.992-.661,2.857,2.857,0,0,1,1.335-.416,6.431,6.431,0,0,1,.967.061A5.941,5.941,0,0,1,2135.505,283.369Z" transform="translate(-2078.076 -276.934)"/><path class="d" d="M2576.172,289.511q.147-1.371,1.934-1.371a5.07,5.07,0,0,1,1.42.147,1.026,1.026,0,0,1,.649.514,2.09,2.09,0,0,1,.22.649,7.069,7.069,0,0,1,.037.845v8.57a7.061,7.061,0,0,1-.037.845,2.266,2.266,0,0,1-.208.649q-.343.637-1.677.637a3.307,3.307,0,0,1-1.787-.331,1.321,1.321,0,0,1-.527-.967,3.425,3.425,0,0,1-3.024,1.3,5.344,5.344,0,0,1-3.93-1.935,6.446,6.446,0,0,1,.012-8.974,5.449,5.449,0,0,1,4-1.922,3.817,3.817,0,0,1,1.518.294,3.359,3.359,0,0,1,.955.551A3.424,3.424,0,0,1,2576.172,289.511Zm-4.457,5.093a2.031,2.031,0,0,0,.637,1.457,2.083,2.083,0,0,0,1.543.649,1.946,1.946,0,0,0,1.505-.661,2.123,2.123,0,0,0,.6-1.457,2.262,2.262,0,0,0-.575-1.481,1.911,1.911,0,0,0-1.543-.686,1.982,1.982,0,0,0-1.567.686A2.223,2.223,0,0,0,2571.715,294.6Z" transform="translate(-2508.757 -281.855)"/><path class="d" d="M3212.858,43.686a1.035,1.035,0,0,1-.648.5,4.216,4.216,0,0,1-1.237.146,4.259,4.259,0,0,1-1.236-.146,1.023,1.023,0,0,1-.649-.514,2.1,2.1,0,0,1-.22-.649,6.926,6.926,0,0,1-.037-.845,7.035,7.035,0,0,1,.037-.845,1.993,1.993,0,0,1,.208-.624q.342-.662,1.91-.661,1.543,0,1.861.661a1.974,1.974,0,0,1,.232.649,9.762,9.762,0,0,1,0,1.69A1.963,1.963,0,0,1,3212.858,43.686Zm-4.027,4.542a7.028,7.028,0,0,1,.037-.845,2.267,2.267,0,0,1,.208-.649q.342-.636,1.91-.637a2.591,2.591,0,0,1,1.666.416,1.351,1.351,0,0,1,.44,1.053q.024.245.024.71v8.57a7.024,7.024,0,0,1-.037.845,1.967,1.967,0,0,1-.232.649q-.319.637-1.886.637-1.542,0-1.885-.661a2.283,2.283,0,0,1-.208-.637,7.092,7.092,0,0,1-.037-.857Z" transform="translate(-3135.251 -39.078)"/><path class="d" d="M3498.433,288.138a5.179,5.179,0,0,1,4.077,1.873,6.718,6.718,0,0,1,1.628,4.567v4.31a7.065,7.065,0,0,1-.037.845,2,2,0,0,1-.208.624q-.343.661-1.91.661-1.739,0-2.008-.906a4.04,4.04,0,0,1-.147-1.249v-4.31a1.967,1.967,0,0,0-2.117-2.13,2.142,2.142,0,0,0-1.567.588,2.067,2.067,0,0,0-.6,1.542v4.334a7.065,7.065,0,0,1-.037.845,1.739,1.739,0,0,1-.233.624q-.318.661-1.885.661-1.543,0-1.885-.661a2.264,2.264,0,0,1-.208-.649,7.2,7.2,0,0,1-.036-.845V290.2a6.924,6.924,0,0,1,.036-.82,1.742,1.742,0,0,1,.233-.624q.343-.612,1.885-.612,1.493,0,1.837.563a1.952,1.952,0,0,1,.244,1,2.479,2.479,0,0,1,.441-.49,4.313,4.313,0,0,1,.661-.514A3.207,3.207,0,0,1,3498.433,288.138Z" transform="translate(-3411.471 -281.854)"/><path class="a" d="M4090.363,44.156q1.69,0,1.983.931a4.224,4.224,0,0,1,.147,1.224,3.726,3.726,0,0,1-.159,1.212,1.149,1.149,0,0,1-.5.649,3.063,3.063,0,0,1-1.494.294l-1.567-.1V54.93a3.153,3.153,0,0,1-.232,1.384,1.151,1.151,0,0,1-.71.6,4.267,4.267,0,0,1-1.236.146,3.814,3.814,0,0,1-1.212-.159,1.13,1.13,0,0,1-.649-.514,1.857,1.857,0,0,1-.232-.649,7.414,7.414,0,0,1-.037-.857V48.392h-.882a1.513,1.513,0,0,1-.906-.294,2.553,2.553,0,0,1-.465-1.787q0-2.007,1.444-2.008h.808v-1.3a5.044,5.044,0,0,1,1.347-3.416,4.908,4.908,0,0,1,3.893-1.53,7.12,7.12,0,0,1,.844.037,1.963,1.963,0,0,1,.649.233q.661.319.661,1.885a2.7,2.7,0,0,1-.416,1.69,1.5,1.5,0,0,1-1.077.441h-.686q-.906,0-.906.612V44.3Zm7.6-2.412a1.037,1.037,0,0,1-.649.5,4.212,4.212,0,0,1-1.236.146,4.262,4.262,0,0,1-1.237-.146,1.022,1.022,0,0,1-.649-.514,2.1,2.1,0,0,1-.22-.649,6.966,6.966,0,0,1-.037-.845,7.076,7.076,0,0,1,.037-.845,1.987,1.987,0,0,1,.208-.624q.343-.662,1.908-.661,1.543,0,1.861.661a1.962,1.962,0,0,1,.232.649,9.634,9.634,0,0,1,0,1.69A1.992,1.992,0,0,1,4097.966,41.744Zm-4.028,4.542a7.069,7.069,0,0,1,.037-.845,2.26,2.26,0,0,1,.208-.649q.342-.636,1.91-.637a2.587,2.587,0,0,1,1.665.416,1.351,1.351,0,0,1,.441,1.053q.024.245.024.71v8.57a7.261,7.261,0,0,1-.036.845,1.981,1.981,0,0,1-.233.649q-.318.637-1.885.637-1.542,0-1.885-.661a2.291,2.291,0,0,1-.208-.637,7.028,7.028,0,0,1-.037-.857Z" transform="translate(-3989.038 -37.136)"/><path class="a" d="M4854.854,288.137a5.179,5.179,0,0,1,4.077,1.873,6.719,6.719,0,0,1,1.628,4.567v4.31a7.237,7.237,0,0,1-.037.845,1.993,1.993,0,0,1-.208.624q-.343.661-1.91.661-1.739,0-2.008-.906a4.039,4.039,0,0,1-.147-1.249v-4.31a1.967,1.967,0,0,0-2.118-2.13,2.143,2.143,0,0,0-1.567.588,2.067,2.067,0,0,0-.6,1.542v4.334a7.024,7.024,0,0,1-.037.845,1.738,1.738,0,0,1-.232.624q-.318.661-1.885.661-1.543,0-1.886-.661a2.255,2.255,0,0,1-.208-.649,7.129,7.129,0,0,1-.037-.845v-8.668a6.862,6.862,0,0,1,.037-.82,1.737,1.737,0,0,1,.232-.624q.344-.612,1.886-.612,1.493,0,1.836.563a1.954,1.954,0,0,1,.245,1,2.476,2.476,0,0,1,.441-.49,4.336,4.336,0,0,1,.661-.514A3.209,3.209,0,0,1,4854.854,288.137Z" transform="translate(-4736.892 -281.854)"/><path class="a" d="M5488.028,43.686a1.034,1.034,0,0,1-.648.5,4.215,4.215,0,0,1-1.236.146,4.263,4.263,0,0,1-1.237-.146,1.023,1.023,0,0,1-.649-.514,2.137,2.137,0,0,1-.221-.649,7.218,7.218,0,0,1-.037-.845,7.14,7.14,0,0,1,.037-.845,1.993,1.993,0,0,1,.208-.624q.344-.661,1.91-.661,1.542,0,1.861.661a1.932,1.932,0,0,1,.233.649,7.245,7.245,0,0,1,.037.845,7.13,7.13,0,0,1-.037.845A1.972,1.972,0,0,1,5488.028,43.686ZM5484,48.228a7.134,7.134,0,0,1,.037-.845,2.267,2.267,0,0,1,.208-.649q.344-.636,1.91-.637a2.589,2.589,0,0,1,1.665.416,1.351,1.351,0,0,1,.441,1.053q.024.245.024.71v8.57a7.129,7.129,0,0,1-.037.845,1.967,1.967,0,0,1-.232.649q-.319.637-1.885.637-1.542,0-1.886-.661a2.3,2.3,0,0,1-.208-.637,7.092,7.092,0,0,1-.037-.857Z" transform="translate(-5359.764 -39.078)"/><path class="a" d="M5749.314,115.351l-1.592-.1v3.378a1.686,1.686,0,0,0,.208.955.9.9,0,0,0,.783.294,7.98,7.98,0,0,1,.882.037,1.733,1.733,0,0,1,.648.233q.563.319.563,1.641,0,1.543-.686,1.885a2.258,2.258,0,0,1-.649.208,6.9,6.9,0,0,1-.82.037,5.733,5.733,0,0,1-3.869-1.151,4.936,4.936,0,0,1-1.321-3.893v-3.624a6.477,6.477,0,0,1-1,.073,1.125,1.125,0,0,1-.894-.416,2.211,2.211,0,0,1-.355-1.42,6.231,6.231,0,0,1,.122-1.457,1.3,1.3,0,0,1,.343-.649,1.507,1.507,0,0,1,.979-.318l.808.1v-2.521a6.808,6.808,0,0,1,.037-.833,1.544,1.544,0,0,1,.232-.588q.319-.612,1.886-.612,1.665,0,1.983.906a4.617,4.617,0,0,1,.121,1.249v2.4q1.077-.1,1.628-.1a6.98,6.98,0,0,1,.833.037,1.97,1.97,0,0,1,.649.233q.636.319.636,1.885,0,1.543-.661,1.885a2.272,2.272,0,0,1-.649.208A7.034,7.034,0,0,1,5749.314,115.351Z" transform="translate(-5610.729 -104.022)"/><path class="a" d="M6216.72,277.466q1.444.637,1.444,1.543a1.845,1.845,0,0,1-.2.833,4.029,4.029,0,0,0-.2.416l-6.415,14.349q-.2.465-.33.71a1.493,1.493,0,0,1-.429.465,1.188,1.188,0,0,1-.735.22,3.7,3.7,0,0,1-1.3-.367q-1.445-.637-1.445-1.518a33.917,33.917,0,0,1,2.351-5.608l-4.873-8.2a2.729,2.729,0,0,1-.49-1.2q0-.783,1.322-1.567a2.875,2.875,0,0,1,1.3-.49,1.337,1.337,0,0,1,.758.2,1.467,1.467,0,0,1,.429.4q.135.208,1.347,2.277t2.314,3.856q.122-.391,1.322-3.024t1.285-2.8a2.585,2.585,0,0,1,.282-.416,1.061,1.061,0,0,1,.894-.416A3.474,3.474,0,0,1,6216.72,277.466Z" transform="translate(-6062.39 -271.811)"/></g></g></svg>